<svg viewBox="0 0 351.5 110.55" xmlns="http://www.w3.org/2000/svg"><g fill="#ffcc01"><path d="M37.18 7.1c0 .63.63 1.01 1.14 1.01.76 0 1.39-.25 1.78-.25.5 0 .88.25.88.89 0 1.77-3.29 2.15-3.29 3.92 0 .38.25.76.63.76.51 0 .89-.38 1.39-.38.38 0 .51.38.51.63 0 .63-1.52.89-1.52 1.39 0 .51.25.89.89.89.76 0 1.39-.63 2.28-.63.51 0 .63.38.63.76 0 .51-2.66 1.65-8.74 5.7-7.09 4.68-13.11 9.31-13.11 16.28 0 1.77 2.28 2.91 3.8 2.91 2.4 0 12.53-3.42 18.37-3.42 3.16 0 6.58 5.7 6.84 7.09.26 1.01.38 2.79.38 4.31 0 24.19-44.83 52.44-47.62 52.44-2.15 0-2.4-2.02-2.4-3.17 0-2.66 2.91-2.66 2.91-4.31 0-.38-.13-.76-.13-1.14 0-.51.38-.63.38-1.4 0-.37-.63-.5-.89-.5-.51 0-.89.25-1.14.25-.51 0-.63-.25-.76-.76 0-2.41 3.55-3.67 3.55-4.44 0-.26-.13-.51-.51-.51-.51 0-1.26.89-1.77.89-.25 0-1.27-.25-1.27-1.39 0-2.79 5.07-4.81 13.3-10.39 1.9-1.27 17.36-13.3 17.36-19.25 0-.89-.51-1.39-2.41-1.39-2.53 0-7.23 2.28-11.53 2.28-8.49 0-12.41-7.97-12.41-15.32C4.7 20.46 20.99 8.23 36.69.89 38.07.26 38.95 0 40.1 0c1.65 0 2.15 1.02 2.15 2.53 0 2.28-5.07 2.67-5.07 4.57zM92.58 80.24c-.88 1.02-7.98 11.4-12.41 11.4-1.27 0-2.66-.5-3.42-2.03-1.4-3.04-3.8-12.03-3.8-13.43 0-1.39.76-1.9 1.52-1.9 1.14 0 1.01-2.53 3.04-2.79 1.9-.12.63-4.18 2.66-4.18 2.4 0 1.14 10.64 4.05 10.64 1.64 0 1.39-8.11 1.39-9.37 0-2.4-.25-17.73-3.29-17.73-4.05 0-13.05 16.46-13.05 34.58 0 2.66-.12 5.19-.12 9.12 0 3.29.12 3.21.12 5.11 0 7.22-.38 8.49-.76 8.49-.89 0-3.42-1.14-4.69-2.53-.89-.88-.38-5.57-1.77-5.57-1.02 0-.64 2.91-1.65 2.91-.89 0-1.27-1.52-1.27-4.68 0-1.14-.25-1.65-.51-1.65-1.26 0-1.26 2.4-2.28 2.4-1.65 0-2.02-3.17-2.15-6.07-.12-4.05.01-14.36.01-19.56 0-10.77 5.2-42.56 8.11-42.56 1.14 0 1.65.13 1.65.63 0 .63-.64 1.9-.64 2.79 0 .5.13.89.51.89.76 0 2.15-1.52 3.42-1.52 1.78 0 2.54 1.27 2.54 2.53 0 .89-.13 1.4-.13 1.9 0 .38.25.88.51.88.38 0 1.14-1.52 1.65-1.52 1.01 0 1.77 1.52 1.77 2.91 0 1.26-1.52 7.86-1.9 10.38h.25c1.4-1.9 8.49-15.07 15.07-15.07 7.73 0 12.29 7.6 12.29 18.24 0 9.39-2.79 21.04-6.72 26.36zM123.87 90.78c-1.77 0-3.16-1.01-4.05-1.01-.38 0-.63.38-.63.63 0 .51 2.15.63 3.16 1.27-1.26.25-2.66.51-5.83.51-2.28 0-6.08-2.15-8.99-5.95s-4.18-6.21-4.18-11.91c0-16.85 7.98-29.13 21.91-38.25 1.14.25 3.55 1.27 4.43 1.27.25 0 .25-.13.25-.25 0-.64-2.41-1.9-2.79-2.15 1.65-1.39 4.43-2.79 5.45-2.79 4.82 0 9.37 5.07 11.52 8.49 3.3 5.06 3.3 10.76 3.3 14.44.01 15.68-16.08 35.7-23.55 35.7zm7.98-40.02c-1.27-1.52-3.17-3.3-4.43-3.3-5.95 0-9.63 14.44-9.63 19.25 0 4.05.51 11.91 6.21 11.91 7.85 0 9.75-15.2 9.75-20.77 0-2.66-.38-5.32-1.9-7.09zM167.19 73.04c-1.02 3.04-3.17 15.07-3.8 19 0 .38-.25.89-.88.89-1.14 0-5.07-1.02-5.07-2.41s.38-2.53.38-3.92c0-.38-.25-.64-.64-.64-1.02 0-1.02 2.79-2.15 2.79-2.41 0-3.67-1.9-3.67-5.7 0-15.96 2.4-35.21 6.71-49.52.13-.64.89-1.4 1.65-1.4 1.14 0 2.28 2.91 2.28 3.42 0 .88-.76 2.41-.76 3.54 0 .26.26 1.02.64 1.02 1.14 0 1.14-2.54 2.53-2.54.38 0 2.4 1.01 2.4 2.15 0 1.02-.63 2.91-.63 4.05 0 .25.38.63.76.63 1.01 0 1.26-3.29 2.16-3.29.63 0 1.77.75 1.77 1.52 0 4.05-5.07 12.92-5.07 20.01h.25c1.77-3.29 5.83-11.9 10.26-11.9 1.14 0 4.05.88 4.05 2.53 0 1.78-1.27 3.04-1.27 3.17 0 0 0 .25.12.25.26 0 .89-.76 1.02-.76s.13.12.13.12c0 .13-.25.38-.25.51 0 .26.12.63.25.89.63-.63 1.27-1.26 1.65-1.26.76 0 1.64 1.01 1.64 1.39 0 4.05-2.02 8.1-4.56 11.4.89.13 1.65.13 2.53.13 1.39 0 3.79-.76 5.07-1.39 0 3.42-3.42 2.79-3.42 3.55 0 .38.25.63.51.63.25 0 .76-.25 1.14-.25.25 0 .38.13.38.38 0 .88-.76 1.39-1.4 1.65v.25c1.02 0 2.28-.25 2.92-.51-.38 5.2-9.12 6.34-11.15 6.34-4.68 0-6.58-3.04-8.48-6.72zM188.97 79.1c0-14.69 2.41-23.3 4.69-36.48-3.55-1.65-4.82-2.4-4.82-3.17 0-.88.51-1.26 1.27-1.26.64 0 1.02.25 1.65.25.25 0 .5 0 .5-.38 0-.26-.37-.63-2.66-1.27V32.1c0-2.03.51-2.79 1.14-2.79.51 0 1.14.13 1.52.25l4.18 1.52c1.52-5.95 2.91-12.03 3.92-15.71.63-2.53 1.14-3.42 2.28-3.42 2.16 0 3.8 2.15 3.8 3.8 0 2.02-.63 2.91-.63 3.67 0 .63.12 1.14.63 1.14 1.01 0 1.14-2.03 3.42-2.03 1.26 0 .76 3.93 1.26 3.93.51 0 .76-2.03 1.39-2.03.76 0 .89.51.89 1.65 0 3.8-2.16 8.61-3.16 13.3 3.54.63 6.84 1.01 7.09 1.39s.38.63.38 1.39c.12 1.39-1.26 1.65-1.26 3.17 0 .76.75 1.52.75 2.15 0 .38-.63.38-1.01.38-.51 0-1.9-.13-2.54-.13-.5 0-.88.25-.88.89 0 1.14 4.94.63 4.94 3.04 0 1.52-1.39 2.03-2.78 2.03-1.27 0-5.95-1.52-7.86-1.77-1.39 4.31-4.44 19.5-4.44 23.18 0 1.38.64 1.77 1.52 1.77 4.81 0 11.14-6.46 11.9-6.46.64 0 .89.25.89.63 0 .89-2.92 2.53-2.92 3.42 0 .25.13.38.51.51.76 0 1.26-.38 1.65-.38.51 0 .76.25.76.64 0 1.01-3.42 2.66-3.42 3.55 0 .25.13.5.51.5s1.52-.76 2.41-.76c.25 0 .38.13.38.38 0 1.77-17.23 15.46-20.14 15.46-4.29.02-7.71-5.56-7.71-11.26zM239 39.21c12.03-7.72 13.81-9.63 15.58-9.63.76 0 1.26.76 1.26 1.65 0 1.39-2.91 2.91-2.91 3.29 0 .51.13.76.51.76.5 0 1.01-.38 1.39-.38.51 0 1.14.26 1.14 1.01 0 1.26-4.31 2.03-4.31 3.29 0 .51.76.63 1.39.63.89 0 1.65.13 1.65.63 0 .76-.38 1.14-.38 2.28 0 1.39 1.14-.13 1.14 2.53s-20.14 13.56-20.14 16.97c0 .51.89.89 1.9.89 1.14 0 6.72-1.01 9.24-1.01 5.45 0 7.47 4.68 7.47 8.48 0 15.07-23.18 27.36-31.41 27.36-1.14 0-1.52-1.64-1.52-3.29.13-1.27 4.18-2.15 4.18-2.66 0-.25-.12-.38-.25-.38-.25 0-.89.13-1.52.13-1.39 0-2.28-.76-2.28-1.64 0-2.66.63-2.79.63-3.67 0-.51-.26-1.27-.26-2.03 0-1.64 14.95-5.32 14.95-9.12 0-1.51-13.3 0-14.06-2.02-.51-1.39-.76-5.7-.76-11.15.02-8.61 14.2-20.9 17.37-22.92zM278.52 88.22c-1.77 0-3.17-1.01-4.06-1.01-.38 0-.63.38-.63.63 0 .51 2.15.63 3.17 1.27-1.27.25-2.66.51-5.83.51-2.28 0-6.08-2.15-9-5.95-2.91-3.8-4.18-6.21-4.18-11.91 0-16.85 7.98-29.13 21.91-38.25 1.14.25 3.55 1.27 4.43 1.27.25 0 .25-.13.25-.25 0-.64-2.41-1.9-2.78-2.15 1.65-1.39 4.43-2.79 5.44-2.79 4.82 0 9.37 5.07 11.53 8.49 3.29 5.06 3.29 10.76 3.29 14.44.01 15.69-16.07 35.7-23.54 35.7zm7.98-40.02c-1.27-1.52-3.17-3.3-4.44-3.3-5.95 0-9.62 14.44-9.62 19.25 0 4.05.51 11.91 6.21 11.91 7.85 0 9.75-15.2 9.75-20.77 0-2.66-.39-5.32-1.9-7.09zM312.72 29.58c1.01 0 1.39 1.27 1.39 2.79v1.27c0 1.9.38 2.66.76 2.66.76 0 .88-2.91 2.53-2.91 1.9 0 2.53.63 2.53 3.16 0 .89-.25 1.52-.25 2.03 0 .38.25.76.5.76.38 0 1.02-2.79 2.41-2.79.88 0 1.65 1.14 1.65 2.41 0 2.66-5.71 19.76-5.71 22.42 0 .63.13 1.02.63 1.02.64 0 1.39-1.65 2.54-3.42 6.84-11.15 13.55-22.93 14.57-22.93 1.64 0 1.9 1.27 3.41 2.03 1.4.63.64 1.52 1.4 2.28 2.41.88 3.8 3.17 3.8 5.7 0 7.61-2.16 14.44-2.16 21.66 0 .89.76 1.14 1.52 1.14 1.65 0 4.55-5.7 5.45-5.7.38 0 .64.25.64.63 0 .76-1.4 1.39-1.4 2.53 0 .51 0 1.02.38 1.4.25-.26.76-.64 1.02-.64.38 0 .5.38.5.64 0 .38-1.64 2.4-1.64 3.42 0 .5.38.5.38 1.01 0 1.01-1.26 1.9-1.26 2.41 0 .25.13.63.5.63.64 0 1.4-1.52 2.03-1.52.26 0 .51.25.51.77 0 1.52-11.78 13.8-12.54 14.69-1.01 1.02-2.03 1.27-2.79 1.27-2.92 0-6.97-8.36-6.97-11.02 0-4.06.77-10.38.64-12.41 0-1.01-.25-1.78-.76-1.78-1.65 0-11.65 23.18-14.57 23.18-2.28 0-5.45-3.67-6.34-5.19-1.77-3.04-3.17-5.95-3.17-8.48.01-5.86 3.43-45.12 7.87-45.12z"/></g></svg>